<svg width="23" height="22" viewBox="0 0 23 22" fill="none" xmlns="http://www.w3.org/2000/svg">
<g clip-path="url(#clip0_1_6372)">
<path d="M12.875 5.95834C12.875 6.23029 12.7944 6.49613 12.6433 6.72225C12.4922 6.94837 12.2774 7.1246 12.0262 7.22867C11.7749 7.33274 11.4985 7.35997 11.2318 7.30692C10.965 7.25386 10.72 7.12291 10.5277 6.93061C10.3354 6.73831 10.2045 6.49331 10.1514 6.22659C10.0984 5.95986 10.1256 5.6834 10.2297 5.43215C10.3337 5.1809 10.51 4.96615 10.7361 4.81507C10.9622 4.66398 11.2281 4.58334 11.5 4.58334C11.8647 4.58334 12.2144 4.7282 12.4723 4.98607C12.7301 5.24393 12.875 5.59367 12.875 5.95834ZM22.5 11C22.5 8.82441 21.8549 6.69767 20.6462 4.88873C19.4375 3.07979 17.7195 1.66989 15.7095 0.83733C13.6995 0.00476615 11.4878 -0.213071 9.35401 0.211367C7.22022 0.635804 5.26021 1.68345 3.72183 3.22183C2.18345 4.76021 1.1358 6.72022 0.711367 8.85401C0.286929 10.9878 0.504766 13.1995 1.33733 15.2095C2.16989 17.2195 3.57979 18.9375 5.38873 20.1462C7.19767 21.3549 9.32441 22 11.5 22H22.5V11ZM20.6667 11V20.1667H11.5C9.68701 20.1667 7.91473 19.6291 6.40728 18.6218C4.89983 17.6146 3.72491 16.1829 3.03111 14.5079C2.33731 12.8329 2.15578 10.9898 2.50947 9.21168C2.86317 7.43352 3.73621 5.80017 5.01819 4.51819C6.30017 3.23621 7.93352 2.36317 9.71168 2.00947C11.4898 1.65578 13.3329 1.83731 15.0079 2.53111C16.6829 3.22491 18.1146 4.39983 19.1218 5.90728C20.1291 7.41473 20.6667 9.18701 20.6667 11ZM13.3333 11C13.3333 10.5138 13.1402 10.0475 12.7964 9.70364C12.4526 9.35983 11.9862 9.16667 11.5 9.16667H9.66667V11H11.5V17.4167H13.3333V11Z" fill="#FF8C33"/>
</g>
<defs>
<clipPath id="clip0_1_6372">
<rect width="22" height="22" fill="white" transform="translate(0.5)"/>
</clipPath>
</defs>
</svg>
