<svg width="23" height="22" viewBox="0 0 23 22" fill="none" xmlns="http://www.w3.org/2000/svg">
<g clip-path="url(#clip0_1_6365)">
<path d="M19.75 11.3887V10.0833C19.75 7.89531 18.8808 5.79689 17.3336 4.24971C15.7864 2.70254 13.688 1.83334 11.5 1.83334C9.31194 1.83334 7.21352 2.70254 5.66634 4.24971C4.11917 5.79689 3.24997 7.89531 3.24997 10.0833V11.3887C2.28854 11.812 1.50171 12.5528 1.02121 13.487C0.540714 14.4212 0.395714 15.4921 0.610486 16.5204C0.825258 17.5487 1.38677 18.4721 2.20101 19.1358C3.01525 19.7996 4.0328 20.1635 5.08331 20.1667H6.91664V11H5.08331V10.0833C5.08331 8.38154 5.75935 6.74943 6.96271 5.54607C8.16606 4.34272 9.79817 3.66668 11.5 3.66668C13.2018 3.66668 14.8339 4.34272 16.0372 5.54607C17.2406 6.74943 17.9166 8.38154 17.9166 10.0833V11H16.0833V18.3333H12.4166V20.1667H17.9166C18.9672 20.1635 19.9847 19.7996 20.7989 19.1358C21.6132 18.4721 22.1747 17.5487 22.3895 16.5204C22.6042 15.4921 22.4592 14.4212 21.9787 13.487C21.4982 12.5528 20.7114 11.812 19.75 11.3887ZM5.08331 18.3333C4.35396 18.3333 3.65449 18.0436 3.13876 17.5279C2.62304 17.0122 2.33331 16.3127 2.33331 15.5833C2.33331 14.854 2.62304 14.1545 3.13876 13.6388C3.65449 13.1231 4.35396 12.8333 5.08331 12.8333V18.3333ZM17.9166 18.3333V12.8333C18.646 12.8333 19.3455 13.1231 19.8612 13.6388C20.3769 14.1545 20.6666 14.854 20.6666 15.5833C20.6666 16.3127 20.3769 17.0122 19.8612 17.5279C19.3455 18.0436 18.646 18.3333 17.9166 18.3333Z" fill="#FF8C33"/>
</g>
<defs>
<clipPath id="clip0_1_6365">
<rect width="22" height="22" fill="white" transform="translate(0.5)"/>
</clipPath>
</defs>
</svg>
