<svg width="23" height="22" viewBox="0 0 23 22" fill="none" xmlns="http://www.w3.org/2000/svg">
<g clip-path="url(#clip0_1_6690)">
<path d="M13.8125 10.692L9.91667 14.5878C9.57475 14.9288 9.10267 15.125 8.6205 15.125H8.08333V14.5878C8.08333 14.0983 8.274 13.6382 8.6205 13.2917L12.5163 9.39583L13.8125 10.692ZM14.7686 7.14358L13.8125 8.09967L15.1087 9.39583L16.0648 8.43975C16.4223 8.08225 16.4223 7.50108 16.0648 7.14358C15.7183 6.79617 15.1142 6.79617 14.7686 7.14358ZM22.75 4.58333V17.4167C22.75 19.9439 20.6939 22 18.1667 22H5.33333C2.80608 22 0.75 19.9439 0.75 17.4167V4.58333C0.75 2.05608 2.80608 0 5.33333 0H18.1667C20.6939 0 22.75 2.05608 22.75 4.58333ZM17.3618 5.84742C16.3223 4.80883 14.511 4.80883 13.4724 5.84742L7.32433 11.9955C6.63225 12.6876 6.25 13.6088 6.25 14.5878V16.0417C6.25 16.5486 6.66067 16.9583 7.16667 16.9583H8.6205C9.5995 16.9583 10.5208 16.577 11.2128 15.884L17.3609 9.73592C18.4334 8.66342 18.4343 6.91992 17.3618 5.84742Z" fill="#FF8C33"/>
</g>
<defs>
<clipPath id="clip0_1_6690">
<rect width="22" height="22" fill="white" transform="translate(0.75)"/>
</clipPath>
</defs>
</svg>
