<svg width="23" height="22" viewBox="0 0 23 22" fill="none" xmlns="http://www.w3.org/2000/svg">
<g clip-path="url(#clip0_1_6380)">
<path d="M17.9165 3.66667H17.8239C17.3977 1.57758 15.5469 0 13.3332 0H5.0832C2.55595 0 0.499865 2.05608 0.499865 4.58333V16.3671C0.450365 17.8915 2.31853 18.8925 3.56062 18.0052L6.28037 16.192C6.91287 17.9676 8.59312 19.25 10.5832 19.25H15.8054L19.4382 21.6718C20.6812 22.5583 22.5484 21.5582 22.4999 20.0338V8.25C22.4999 5.72275 20.4438 3.66667 17.9165 3.66667ZM2.54312 16.4798C2.49728 16.5523 2.29745 16.4441 2.3332 16.3671V4.58333C2.3332 3.06717 3.56703 1.83333 5.0832 1.83333H13.3332C14.8494 1.83333 16.0832 3.06717 16.0832 4.58333V11C16.0832 12.5162 14.8494 13.75 13.3332 13.75H6.91653C6.73503 13.7491 6.56545 13.8215 6.40778 13.904L2.54312 16.4798ZM20.6665 20.0338C20.7023 20.1126 20.4988 20.2198 20.4557 20.1465L16.5919 17.5707C16.4416 17.4707 16.2647 17.4167 16.0832 17.4167H10.5832C9.3897 17.4167 8.38137 16.6476 8.00187 15.5833H13.3332C15.8604 15.5833 17.9165 13.5273 17.9165 11V5.5C19.4327 5.5 20.6665 6.73383 20.6665 8.25V20.0338ZM7.5582 11H5.99987C5.49387 11 5.0832 10.5893 5.0832 10.0833V5.5C5.0832 4.994 5.49387 4.58333 5.99987 4.58333H7.5582C7.96337 4.58333 8.29153 4.9115 8.29153 5.31667C8.29153 5.72183 7.96337 6.05 7.5582 6.05H6.54895V7.05925H7.5582C7.96337 7.05925 8.29153 7.38742 8.29153 7.79258C8.29153 8.19775 7.96337 8.52592 7.5582 8.52592H6.54895V9.53517H7.5582C7.96337 9.53517 8.29153 9.86333 8.29153 10.2685C8.29153 10.6737 7.96337 11.0018 7.5582 11.0018V11ZM9.2082 10.3153V5.42117C9.2082 4.95825 9.58312 4.58333 10.046 4.58333C10.3705 4.58333 10.6648 4.77033 10.8041 5.06367L12.1177 7.84208V5.26808C12.1177 4.89042 12.4239 4.58333 12.8024 4.58333C13.181 4.58333 13.4872 4.8895 13.4872 5.26808V10.1622C13.4872 10.6251 13.1123 11 12.6494 11C12.3258 11 12.0306 10.813 11.8922 10.5206L10.5795 7.74767V10.3153C10.5795 10.6929 10.2734 11 9.89478 11C9.5162 11 9.21003 10.6938 9.21003 10.3153H9.2082Z" fill="#FF8C33"/>
</g>
<defs>
<clipPath id="clip0_1_6380">
<rect width="22" height="22" fill="white" transform="translate(0.5)"/>
</clipPath>
</defs>
</svg>
