<svg width="20" height="21" viewBox="0 0 20 21" fill="none" xmlns="http://www.w3.org/2000/svg">
<path d="M10.7259 5.77161C11.7258 5.93919 12.6341 6.41146 13.3592 7.1351C14.0843 7.85873 14.5538 8.76518 14.7255 9.76304M10.8786 2.5C12.657 2.80088 14.279 3.64259 15.5689 4.92609C16.8589 6.2134 17.6985 7.83206 18 9.60688M16.6108 16.6681C16.6108 16.6681 15.6452 17.6164 15.4086 17.8944C15.0232 18.3058 14.569 18.5 13.9737 18.5C13.9164 18.5 13.8553 18.5 13.7981 18.4962C12.6646 18.4238 11.6113 17.982 10.8213 17.605C8.6612 16.5614 6.76445 15.0799 5.18827 13.2022C3.88687 11.6369 3.01673 10.1896 2.44045 8.63568C2.08552 7.68733 1.95576 6.94846 2.01301 6.25148C2.05117 5.80588 2.22291 5.43644 2.53967 5.12033L3.84107 3.82159C4.02808 3.64639 4.22653 3.55118 4.42117 3.55118C4.6616 3.55118 4.85624 3.6959 4.97836 3.81778C4.98218 3.82159 4.986 3.8254 4.98981 3.82921C5.22261 4.0463 5.44397 4.271 5.67677 4.51095C5.79508 4.63282 5.9172 4.7547 6.03933 4.88038L7.08121 5.92014C7.48575 6.32385 7.48575 6.69709 7.08121 7.10081C6.97053 7.21126 6.86367 7.32171 6.753 7.42835C6.43242 7.75589 6.68425 7.50457 6.35222 7.80164C6.34459 7.80926 6.33696 7.81307 6.33314 7.82068C6.00493 8.14823 6.06599 8.46815 6.13469 8.68524C6.1385 8.69667 6.14232 8.70809 6.14614 8.71952C6.4171 9.3746 6.79874 9.99159 7.37884 10.7267L7.38265 10.7305C8.43598 12.0254 9.54656 13.0347 10.7716 13.8078C10.9281 13.9069 11.0884 13.9868 11.241 14.063C11.3784 14.1316 11.5082 14.1963 11.6189 14.2649C11.6341 14.2725 11.6494 14.2839 11.6647 14.2915C11.7944 14.3563 11.9166 14.3867 12.0425 14.3867C12.3593 14.3867 12.5577 14.1887 12.6226 14.1239L13.3707 13.3774C13.5004 13.2479 13.7065 13.0918 13.9469 13.0918C14.1836 13.0918 14.3782 13.2403 14.4965 13.3698C14.5003 13.3736 14.5003 13.3736 14.5041 13.3774L16.607 15.476C17.0001 15.8644 16.6108 16.6681 16.6108 16.6681Z" stroke="#FF8C33" stroke-width="1.5" stroke-linecap="round" stroke-linejoin="round"/>
</svg>
