<svg width="23" height="22" viewBox="0 0 23 22" fill="none" xmlns="http://www.w3.org/2000/svg">
<path d="M11.75 22C5.68442 22 0.75 17.0656 0.75 11C0.75 4.93442 5.68442 0 11.75 0C17.8156 0 22.75 4.93442 22.75 11C22.75 17.0656 17.8156 22 11.75 22ZM11.75 1.83333C6.6955 1.83333 2.58333 5.9455 2.58333 11C2.58333 16.0545 6.6955 20.1667 11.75 20.1667C16.8045 20.1667 20.9167 16.0545 20.9167 11C20.9167 5.9455 16.8045 1.83333 11.75 1.83333ZM14.2681 12.8068L13.2882 13.5868C11.3898 12.8617 9.98908 11.5188 9.16317 9.46183L9.94325 8.48192C10.3521 8.07308 10.3521 7.40942 9.94325 7.00058L9.02658 5.80708C8.61775 5.39825 7.95408 5.39825 7.54525 5.80708L6.99525 6.28558C6.48925 6.79067 6.25 7.45617 6.25 8.11892C6.25 11.7856 11.2266 16.5 14.6311 16.5C15.2938 16.5 15.9593 16.2607 16.4644 15.7548L16.9429 15.2048C17.3518 14.7959 17.3518 14.1322 16.9429 13.7234L15.7494 12.8068C15.3406 12.3979 14.6769 12.3979 14.2681 12.8068Z" fill="#7E8872"/>
</svg>
