<svg width="23" height="22" viewBox="0 0 23 22" fill="none" xmlns="http://www.w3.org/2000/svg">
<g clip-path="url(#clip0_1_6353)">
<path d="M9.66667 21.0833C9.66667 21.5893 9.256 22 8.75 22H5.08333C2.55608 22 0.5 19.9439 0.5 17.4167V4.58333C0.5 2.05608 2.55608 0 5.08333 0H12.4167C14.9439 0 17 2.05608 17 4.58333V6.41667C17 6.92267 16.5893 7.33333 16.0833 7.33333C15.5773 7.33333 15.1667 6.92267 15.1667 6.41667V4.58333C15.1667 3.06717 13.9328 1.83333 12.4167 1.83333H5.08333C3.56717 1.83333 2.33333 3.06717 2.33333 4.58333V17.4167C2.33333 18.9328 3.56717 20.1667 5.08333 20.1667H8.75C9.256 20.1667 9.66667 20.5773 9.66667 21.0833ZM13.3333 5.5C13.3333 4.994 12.9227 4.58333 12.4167 4.58333H5.08333C4.57733 4.58333 4.16667 4.994 4.16667 5.5C4.16667 6.006 4.57733 6.41667 5.08333 6.41667H12.4167C12.9227 6.41667 13.3333 6.006 13.3333 5.5ZM5.08333 13.75C4.57733 13.75 4.16667 14.1607 4.16667 14.6667C4.16667 15.1727 4.57733 15.5833 5.08333 15.5833H6.91667C7.42267 15.5833 7.83333 15.1727 7.83333 14.6667C7.83333 14.1607 7.42267 13.75 6.91667 13.75H5.08333ZM22.5 15.5833C22.5 19.1217 19.6217 22 16.0833 22C12.545 22 9.66667 19.1217 9.66667 15.5833C9.66667 12.045 12.545 9.16667 16.0833 9.16667C19.6217 9.16667 22.5 12.045 22.5 15.5833ZM20.6667 15.5833C20.6667 13.0561 18.6106 11 16.0833 11C13.5561 11 11.5 13.0561 11.5 15.5833C11.5 18.1106 13.5561 20.1667 16.0833 20.1667C18.6106 20.1667 20.6667 18.1106 20.6667 15.5833ZM16.0833 11.9167C15.3243 11.9167 14.7083 12.5327 14.7083 13.2917C14.7083 14.0507 15.3243 14.6667 16.0833 14.6667C16.8423 14.6667 17.4583 14.0507 17.4583 13.2917C17.4583 12.5327 16.8423 11.9167 16.0833 11.9167ZM16.0833 15.5833C15.5773 15.5833 15.1667 15.994 15.1667 16.5V18.3333C15.1667 18.8393 15.5773 19.25 16.0833 19.25C16.5893 19.25 17 18.8393 17 18.3333V16.5C17 15.994 16.5893 15.5833 16.0833 15.5833ZM9.66667 10.0833C9.66667 9.57733 9.256 9.16667 8.75 9.16667H5.08333C4.57733 9.16667 4.16667 9.57733 4.16667 10.0833C4.16667 10.5893 4.57733 11 5.08333 11H8.75C9.256 11 9.66667 10.5893 9.66667 10.0833Z" fill="#FF8C33"/>
</g>
<defs>
<clipPath id="clip0_1_6353">
<rect width="22" height="22" fill="white" transform="translate(0.5)"/>
</clipPath>
</defs>
</svg>
