<svg width="23" height="22" viewBox="0 0 23 22" fill="none" xmlns="http://www.w3.org/2000/svg">
<g clip-path="url(#clip0_1_6359)">
<path d="M10.5833 1.83333C10.5833 0.820417 11.4037 0 12.4166 0C13.4295 0 14.2499 0.820417 14.2499 1.83333C14.2499 2.84625 13.4295 3.66667 12.4166 3.66667C11.4037 3.66667 10.5833 2.84625 10.5833 1.83333ZM11.4468 4.58333C12.0435 5.16633 12.4166 5.97667 12.4166 6.875V7.33333H14.623C14.9622 7.33333 15.2326 7.018 15.1529 6.688C14.8623 5.48075 13.7751 4.58333 12.4789 4.58333H11.4468ZM7.83327 4.58333C8.84619 4.58333 9.66661 3.76292 9.66661 2.75C9.66661 1.73708 8.84619 0.916667 7.83327 0.916667C6.82036 0.916667 5.99994 1.73708 5.99994 2.75C5.99994 3.76292 6.82036 4.58333 7.83327 4.58333ZM1.04352 7.33333H3.24994V6.875C3.24994 5.97667 3.62302 5.16633 4.21977 4.58333H3.18761C1.89144 4.58333 0.804273 5.48075 0.51369 6.688C0.43394 7.018 0.704357 7.33333 1.04352 7.33333ZM21.7987 11.9304L15.5617 18.931C13.8237 20.8817 11.3294 22 8.71694 22H4.16569C2.14352 22 0.499023 20.3555 0.499023 18.3333V13.75C0.499023 11.7278 2.14352 10.0833 4.16569 10.0833H12.2846C13.3287 10.0833 14.2454 10.6416 14.7495 11.4757L17.6984 8.23625C18.1934 7.69083 18.8727 7.37092 19.6097 7.337C20.354 7.30125 21.0525 7.557 21.5979 8.05383C22.7108 9.06858 22.8006 10.8084 21.7978 11.9313L21.7987 11.9304ZM20.3641 9.40775C20.1817 9.24183 19.9461 9.16117 19.6968 9.16758C19.4493 9.1795 19.221 9.28583 19.056 9.46917L14.9979 13.9288C14.6441 14.9096 13.7705 15.6613 12.6934 15.8153L7.96252 16.4908C7.46019 16.5587 6.99636 16.214 6.92486 15.7135C6.85336 15.2121 7.20169 14.7483 7.70311 14.6768L12.434 14.0012C12.9464 13.9278 13.3324 13.4823 13.3324 12.9644C13.3324 12.3869 12.8621 11.9176 12.2846 11.9176H4.16661C3.15552 11.9176 2.33327 12.7398 2.33327 13.7509V18.3342C2.33327 19.3453 3.15552 20.1676 4.16661 20.1676H8.71786C10.8069 20.1676 12.8025 19.2729 14.1931 17.7127L20.431 10.7113C20.7684 10.3336 20.7381 9.74967 20.365 9.40867L20.3641 9.40775ZM5.63969 8.25H10.0269C10.3743 8.25 10.6502 7.93467 10.5686 7.60467C10.2716 6.39742 9.15969 5.5 7.83327 5.5C6.50686 5.5 5.39494 6.39742 5.09794 7.60467C5.01636 7.93467 5.29319 8.25 5.63969 8.25ZM3.24994 3.66667C4.26286 3.66667 5.08327 2.84625 5.08327 1.83333C5.08327 0.820417 4.26286 0 3.24994 0C2.23702 0 1.41661 0.820417 1.41661 1.83333C1.41661 2.84625 2.23702 3.66667 3.24994 3.66667Z" fill="#FF6F00"/>
</g>
<defs>
<clipPath id="clip0_1_6359">
<rect width="22" height="22" fill="white" transform="translate(0.5)"/>
</clipPath>
</defs>
</svg>
